<svg width="1.5rem" height="1.5rem" viewBox="0 0 168 137" fill="none" xmlns="http://www.w3.org/2000/svg">
<path d="M88.2524 0V0.0761895C85.8905 0.0761895 83.5287 0.761879 81.624 2.05707C77.8146 4.72364 77.3575 9.14253 80.786 11.9615L102.576 29.5608L36.0638 29.7894H35.9876C30.5021 29.7894 25.1689 33.3702 24.1023 37.9415C22.8833 42.589 26.6927 46.4745 32.4829 46.4745L66.2341 46.3983L5.81724 92.7967C0.0269671 97.1394 -1.72535 104.377 1.85547 108.948C5.51248 113.596 13.2074 113.596 19.0739 108.948L51.8346 82.0542C51.8346 82.0542 51.3013 85.7112 51.3775 87.8445C51.3775 90.0539 52.1394 94.3204 53.1298 97.5965C55.3393 104.682 59.0725 111.158 64.2532 116.872C69.5864 122.738 76.2147 127.462 83.8335 130.814C91.6808 134.395 100.366 136.224 109.28 136.224C118.118 136.224 126.88 134.319 134.803 130.738C142.422 127.386 148.974 122.586 154.307 116.72C159.488 111.006 163.221 104.453 165.431 97.4441C166.497 93.8633 167.183 90.2825 167.64 86.7017C167.64 83.1208 167.64 79.54 167.183 75.9592C166.192 69.0261 163.831 62.474 160.021 56.5313C156.669 51.122 152.402 46.3221 147.145 42.2842L94.6521 1.98088C92.8998 0.685691 90.6142 0 88.2524 0ZM109.28 46.3983C118.118 46.3983 126.422 49.2935 133.051 54.6266C136.403 57.3694 139.07 60.5693 140.974 64.1501C143.031 67.6547 144.327 71.845 144.784 76.1116C145.088 80.3781 144.479 84.6446 143.031 88.7587C141.508 92.8729 139.07 96.6823 135.794 100.111C129.013 106.968 119.566 110.929 109.28 110.929C99.071 110.929 89.5476 107.044 82.7668 100.187C79.4908 96.8346 77.0528 92.949 75.529 88.8349C74.0814 84.797 73.4719 80.5304 73.8529 76.1877C74.2338 71.9212 75.529 67.8833 77.5099 64.2263C79.4908 60.6454 82.2335 57.4456 85.5858 54.7028C92.1379 49.2935 100.519 46.3983 109.28 46.3983ZM110.042 57.0646C104.099 57.0646 98.6139 59.1979 94.5759 62.6263C90.4618 66.131 87.6429 71.007 87.4143 76.6449C87.1096 82.359 89.3952 87.6921 93.4331 91.6539C97.5473 95.6918 103.49 98.1298 110.042 98.1298C116.594 98.1298 122.461 95.6918 126.651 91.6539C130.689 87.6921 132.975 82.359 132.67 76.6449C132.365 71.007 129.546 66.131 125.508 62.6263C121.47 59.1979 115.985 57.0646 110.042 57.0646Z" fill="white"/>
</svg>
