<svg fill="none" height="24" viewBox="0 0 24 24" width="24" xmlns="http://www.w3.org/2000/svg"><g fill="#000"><path clip-rule="evenodd" d="m9.09536 15.5h-1.342v-7.31496c.484-.088 1.155-.154 2.068-.154.99004 0 1.71604.209 2.18904.605.44.363.726.946.726 1.63896 0 .704-.22 1.287-.638 1.683-.539.539-1.386.792-2.34304.792-.253 0-.484-.011-.66-.044zm.781-6.43496c-.374 0-.638.033-.781.066v2.50796c.165.044.385.055.66.055 1.01204 0 1.62804-.495 1.62804-1.364 0-.82496-.572-1.26496-1.50704-1.26496z" fill-rule="evenodd"/><path d="m14.4646 15.621c-.649 0-1.232-.165-1.628-.385l.264-.979c.308.187.891.385 1.375.385.594 0 .858-.242.858-.594 0-.363-.22-.55-.88-.781-1.045-.363-1.485-.935-1.474-1.562 0-.946.781-1.683 2.024-1.683.594 0 1.111.154 1.419.319l-.264.957c-.231-.132-.66-.308-1.133-.308-.484 0-.748.231-.748.561 0 .341.253.506.935.748.968.352 1.419.847 1.43 1.639 0 .968-.759 1.683-2.178 1.683z"/><path clip-rule="evenodd" d="m17.2582 2.83306c-3.4666-.38744-7.0499-.38744-10.51649 0-2.01206.22488-3.63639 1.80989-3.87295 3.83242-.41453 3.54432-.41453 7.12482 0 10.66912.23656 2.0225 1.86089 3.6076 3.87295 3.8324 3.46659.3875 7.04989.3875 10.51649 0 2.012-.2248 3.6364-1.8099 3.8729-3.8324.4146-3.5443.4146-7.1248 0-10.66912-.2365-2.02253-1.8608-3.60754-3.8729-3.83242zm-10.34988 1.49072c3.35588-.37507 6.82738-.37507 10.18328 0 1.3301.14866 2.3956 1.19827 2.5497 2.51595.401 3.42857.401 6.89207 0 10.32067-.1541 1.3176-1.2196 2.3673-2.5497 2.5159-3.3559.3751-6.8274.3751-10.18328 0-1.33011-.1486-2.3956-1.1983-2.54971-2.5159-.401-3.4286-.401-6.8921 0-10.32067.15411-1.31768 1.2196-2.36729 2.54971-2.51595z" fill-rule="evenodd"/></g></svg>