<svg fill="none" height="24" viewBox="0 0 24 24" width="24" xmlns="http://www.w3.org/2000/svg"><g fill="#000"><path d="m15.9325 10.143v5.357h-1.364v-5.357z"/><path d="m14.4915 8.64703c0-.418.308-.737.759-.737.462 0 .748.319.759.737 0 .407-.297.726-.77.726-.451 0-.748-.319-.748-.726z"/><g clip-rule="evenodd" fill-rule="evenodd"><path d="m12.634 15.5-.671-2.101h-2.35396l-.638 2.101h-1.397l2.376-7.41397h1.72696l2.409 7.41397zm-2.233-4.95-.57196 1.826h1.90296l-.583-1.826c-.1157-.365-.217-.76603-.3098-1.13313-.0218-.08647-.0432-.17105-.0642-.25284h-.022c-.0376.14694-.0753.30419-.1139.46514-.074.30892-.1513.63163-.2381.92083z"/><path d="m17.2583 2.83306c-3.4666-.38744-7.05-.38744-10.51653 0-2.01206.22488-3.63639 1.80989-3.87294 3.83242-.41454 3.54432-.41454 7.12482 0 10.66912.23655 2.0225 1.86088 3.6076 3.87294 3.8324 3.46653.3875 7.04993.3875 10.51653 0 2.012-.2248 3.6363-1.8099 3.8729-3.8324.4145-3.5443.4145-7.1248 0-10.66912-.2366-2.02253-1.8609-3.60754-3.8729-3.83242zm-10.34992 1.49072c3.35582-.37507 6.82742-.37507 10.18322 0 1.3302.14866 2.3956 1.19827 2.5498 2.51595.401 3.42857.401 6.89207 0 10.32067-.1542 1.3176-1.2196 2.3673-2.5498 2.5159-3.3558.3751-6.8274.3751-10.18322 0-1.33011-.1486-2.3956-1.1983-2.54971-2.5159-.401-3.4286-.401-6.8921 0-10.32067.15411-1.31768 1.2196-2.36729 2.54971-2.51595z"/></g></g></svg>