<svg width="" height="" viewBox="0 0 2500 2500" fill="none" xmlns="http://www.w3.org/2000/svg">
<rect width="2500" height="2500" fill="#1C1C1C"/>
<path d="M1234.67 51.4666C1203.07 55.4666 1172.67 67.0666 1146.4 84.7999C1052.27 148.667 971.867 298.267 914.133 516.667C910.133 532 905.867 549.2 904.533 554.667C903.333 560.133 902 565.067 901.467 565.6C901.067 566.133 887.733 561.467 872 555.2C751.333 507.467 646.267 479.333 548 468.4C518.8 465.2 460.4 465.2 436.667 468.533C376.533 476.667 333.333 495.2 300.8 526.667C248.8 576.933 234.667 650.8 259.333 744.667C266.4 772 283.067 817.2 293.467 837.733L296.133 842.667L286.533 853.467C269.067 873.467 257.733 893.067 249.333 918.533C215.2 1021.2 278.267 1130.67 385.333 1154C400.667 1157.33 433.867 1158.13 450.267 1155.47C463.467 1153.47 483.733 1147.6 495.333 1142.67L501.067 1140.27L514.133 1155.07C535.2 1178.8 562.667 1208.27 585.467 1231.33L606.533 1252.67L580.4 1280C409.733 1458.13 301.067 1619.87 263.867 1751.07C240.8 1832.67 246.533 1899.07 281.067 1951.2C289.733 1964.27 312.933 1987.2 326.8 1996.4C404.267 2047.6 527.333 2051.6 693.067 2008.53C751.333 1993.47 840.533 1963.33 891.867 1941.47C897.333 1939.2 901.867 1937.47 902.133 1937.6C902.267 1937.87 905.467 1950.13 909.2 1964.93C944.667 2106.27 992.667 2226.67 1046.27 2308.53C1070.13 2345.07 1101.6 2381.47 1126.67 2401.73C1166.93 2434.27 1207.07 2449.87 1250.67 2449.87C1337.07 2449.87 1415.33 2385.6 1484.4 2258C1500.4 2228.4 1523.2 2177.87 1535.33 2145.33L1539.07 2135.33L1558.53 2135.2C1582 2135.07 1597.2 2132.53 1619.33 2125.2C1648.8 2115.33 1672.4 2100.8 1694.53 2078.53C1716.67 2056.4 1731.33 2032.8 1741.2 2003.6C1744 1994.93 1746.67 1987.47 1747.07 1987.2C1747.47 1986.8 1756.93 1989.2 1768.13 1992.67C1834.4 2012.53 1892.4 2025.07 1952 2032.13C1981.87 2035.73 2043.47 2036.53 2066.67 2033.6C2127.47 2026 2172.8 2007.2 2205.87 1975.87C2231.87 1951.33 2248 1921.73 2256.27 1883.6C2260.27 1865.2 2260.67 1817.87 2256.93 1795.6C2241.2 1702.27 2187.07 1593.33 2095.07 1470.27C2047.73 1407.07 1996.93 1347.87 1930.93 1278.93L1906.27 1253.2L1914.27 1244.93C1940.4 1218 1964.8 1191.87 1987.6 1166.53L2013.6 1137.73L2025.2 1142.8C2050.8 1153.73 2074.53 1158 2104.53 1156.93C2133.73 1155.87 2152.8 1151.07 2179.33 1138C2213.07 1121.33 2243.2 1091.2 2260.4 1056.67C2295.33 986.8 2281.87 902.4 2227.07 847.2L2218 838L2226.27 818.4C2241.47 782.4 2252.4 746.667 2258.93 711.2C2261.33 698 2261.73 690.267 2261.87 664.667C2261.87 637.867 2261.47 632.267 2258.93 620.4C2251.2 584.933 2237.07 557.467 2214.13 533.6C2199.2 518 2183.73 506.8 2163.33 496.667C2134.27 482.133 2104.4 474.133 2064.27 469.867C2040.4 467.2 1983.6 468 1956.13 471.2C1858.67 482.667 1758.27 510.133 1634.93 558.933C1616.4 566.267 1600.93 572 1600.8 571.867C1600.53 571.6 1596.93 557.867 1592.8 541.333C1583.33 503.333 1570.67 458.667 1559.2 423.733C1481.6 185.6 1375.6 55.4666 1256 51.4666C1246.8 51.1999 1237.2 51.1999 1234.67 51.4666ZM1274.13 126.667C1350.13 145.733 1427.6 258.4 1486.8 436C1503.07 484.8 1523.6 558.267 1532.53 600.133C1532.8 601.6 1528.53 604.267 1516.13 610C1448.4 641.467 1356.93 689.733 1284.67 732C1269.6 740.8 1257.2 748 1256.93 748C1256.67 748 1245.33 741.467 1231.87 733.6C1155.47 688.533 1060.8 638.667 991.333 606.667C979.6 601.2 969.733 596.667 969.467 596.4C968.533 595.867 984.133 534.933 994.267 499.467C1042.8 328.8 1109.73 202.267 1178.67 150.8C1192.67 140.4 1213.73 129.867 1226.8 126.667C1240.53 123.2 1260.67 123.2 1274.13 126.667ZM558 542.533C647.467 554.8 747.2 582.933 854.667 626.267C882.267 637.467 885.333 638.8 885.333 640.667C885.333 641.6 884.133 648 882.8 654.8C864.133 745.733 845.867 886.533 838 1000C836.933 1016.53 835.6 1033.73 835.2 1038.13L834.533 1046.4L812.933 1064.4C770.667 1099.6 721.2 1143.33 678.667 1182.93L658.133 1202.27L636.667 1180.13C611.067 1153.73 596.8 1138.53 575.2 1114.53L559.067 1096.67L568.267 1084.67C600.8 1042 612.533 984.8 599.733 932C585.067 872 541.067 823.6 482.4 802.933C447.333 790.533 404.133 789.6 369.733 800.667C364 802.533 358.933 804 358.4 804C357.2 804 344.667 774 338.533 756C315.467 689.333 314 636.4 334.267 600.267C339.867 590 354 574.8 364 568C384.933 553.867 409.867 545.467 445.333 540.533C465.2 537.867 532.4 539.067 558 542.533ZM2048.8 541.333C2082.8 544 2109.33 550.533 2131.07 561.333C2144.8 568.267 2152.27 573.867 2163.07 585.2C2172.8 595.467 2182.4 613.333 2186 627.333C2193.2 655.6 2190.93 691.733 2179.47 733.733C2172.67 758.133 2156.27 801.333 2153.73 801.333C2153.07 801.333 2149.73 800.4 2146.13 799.333C2125.2 792.933 2089.33 791.2 2066 795.333C1951.87 815.733 1885.47 934.667 1927.87 1042.8C1933.6 1057.33 1943.73 1075.33 1951.6 1085.07C1955.2 1089.47 1956 1091.47 1955.2 1093.33C1953.47 1096.8 1914.4 1139.87 1882.13 1173.6L1854.4 1202.67L1833.6 1182.8C1794.8 1146 1741.2 1098.67 1694 1059.47C1680.13 1047.87 1667.87 1037.6 1666.93 1036.8C1665.87 1035.73 1664.4 1023.2 1662.67 998.667C1654 881.2 1638.8 762.533 1619.87 664.8C1617.87 653.733 1616.27 644.667 1616.4 644.533C1616.53 644.4 1628 639.733 1642 634C1805.73 566.933 1951.73 533.733 2048.8 541.333ZM989.333 686C1057.73 718.667 1188.67 789.333 1185.73 792C1185.2 792.533 1175.07 799.2 1163.33 806.667C1094.27 850.933 1006.27 912.667 934.667 967.067C922.667 976.267 912.533 983.6 912.267 983.333C911.733 982.8 916.533 928.933 920.133 896C926.933 832.4 937.467 758.133 948.133 699.733C950.933 683.733 953.333 670.4 953.333 670C953.333 668.8 954.667 669.333 989.333 686ZM1548.53 678.267C1552.4 691.467 1567.2 785.733 1574.53 844C1577.87 870.533 1580.13 891.2 1587.33 965.6C1587.73 969.867 1587.87 973.333 1587.47 973.333C1587.2 973.333 1572.27 962.4 1554.4 948.933C1484.4 896.4 1398.27 836.8 1328.67 792.667C1327.07 791.6 1330.67 789.067 1346.27 780.133C1402.4 748.133 1462.93 716.133 1512 692.4C1530.67 683.333 1546.4 676 1546.93 676C1547.47 676 1548.13 677.067 1548.53 678.267ZM448.667 822.933C479.2 827.467 513.467 846 535.333 869.6C569.733 906.8 584 957.333 573.867 1006.4C562.933 1059.87 523.333 1104.53 471.333 1121.87C453.467 1127.87 439.2 1129.73 416.667 1128.93C391.733 1128.13 376.4 1124.53 355.2 1114C257.067 1066 237.733 936.267 317.6 862C353.2 828.933 398.8 815.333 448.667 822.933ZM2126.13 823.467C2139.87 825.867 2152.93 830.267 2166.93 837.333C2183.07 845.467 2193.73 853.467 2208 868C2274.4 935.6 2264.13 1046.13 2186.13 1101.6C2173.07 1110.93 2152.13 1120.67 2136.4 1124.93C2124.4 1128.27 2121.33 1128.53 2097.33 1128.53C2073.33 1128.53 2070.27 1128.27 2058 1124.93C2050.67 1122.93 2038.13 1118.13 2030 1114.13C1932.4 1066.13 1912.53 937.6 1991.33 862.8C2027.2 828.8 2076 814.533 2126.13 823.467ZM1289.33 853.733C1386.27 915.2 1504.27 999.333 1590.93 1068.8C1594.4 1071.47 1594.4 1071.6 1596 1102.13C1599.73 1174.8 1599.07 1351.6 1594.93 1420.27L1594 1434.53L1573.33 1450.8C1486.93 1518.67 1381.87 1592.93 1288.13 1652.27C1259.47 1670.4 1256.67 1671.87 1254.13 1670.27C1252.53 1669.2 1239.07 1660.67 1224 1651.2C1129.2 1591.73 1017.6 1512.53 926.533 1440.4L905.733 1423.87L904.933 1403.6C901.733 1326.27 901.067 1249.87 902.667 1180.67C903.6 1141.07 904.8 1102.53 905.2 1095.07L906 1081.47L933.333 1059.87C1025.07 987.467 1132.93 911.333 1230 850.133C1252.93 835.733 1256.8 833.733 1259.2 834.933C1260.8 835.733 1274.27 844.267 1289.33 853.733ZM1701.33 1160.93C1733.87 1189.33 1765.6 1218.13 1788.13 1239.6L1802.53 1253.33L1776.93 1276.93C1736 1314.93 1670.8 1372.67 1669.87 1371.6C1669.73 1371.47 1670.27 1350.27 1670.93 1324.67C1672.13 1279.73 1671.33 1150 1669.73 1139.6C1669.33 1136.93 1669.47 1134.67 1670.13 1134.67C1670.8 1134.67 1684.8 1146.4 1701.33 1160.93ZM830 1253.2C830 1361.07 830 1361.2 827.333 1358.8C825.867 1357.47 812.933 1346.27 798.667 1333.73C772.267 1310.67 743.6 1284.67 722 1264.27L710.133 1252.93L721.333 1242.27C750.8 1214.53 827.733 1145.6 829.333 1145.33C829.733 1145.33 830 1193.87 830 1253.2ZM680.667 1324.8C718.4 1360.27 768.533 1404.4 812.667 1441.2C824.4 1451.07 834.4 1459.73 834.8 1460.53C835.333 1461.33 836 1469.73 836.533 1479.33C841.733 1580.53 861.867 1741.2 881.867 1842C884.4 1854.4 886 1865.07 885.6 1865.6C885.067 1866 870.267 1872.13 852.667 1879.07C738.133 1924.53 641.333 1951.2 552 1962.27C524.4 1965.6 462.8 1965.6 441.6 1962.27C398.933 1955.47 370.267 1942.67 350.533 1921.6C340 1910.27 334.133 1900.67 329.2 1886.4C296.4 1790.27 386.133 1606.13 563.867 1404.67C584.267 1381.6 605.2 1358.93 633.2 1329.6C654.4 1307.47 658 1304.27 659.867 1305.6C661.067 1306.53 670.4 1315.2 680.667 1324.8ZM1887.2 1338C2056.67 1516 2165.6 1686.53 2184.53 1803.87C2194.27 1863.73 2180.8 1907.07 2144.67 1932.67C2090.53 1971.07 1984.93 1973.33 1847.33 1939.2C1814.93 1931.07 1752.13 1912.53 1750 1910.53C1749.73 1910.13 1747.6 1902.93 1745.47 1894.67C1736.4 1860 1720.53 1831.6 1696.27 1806.8C1678.8 1789.07 1655.87 1772.8 1638.93 1766C1635.87 1764.67 1633.33 1762.93 1633.33 1762.13C1633.33 1761.2 1635.47 1746.4 1638 1729.2C1648.27 1659.47 1656.53 1583.87 1661.33 1516.67C1662.93 1495.33 1664.53 1476.13 1665.07 1473.87C1665.87 1470.53 1672.13 1464.53 1698 1443.07C1745.6 1403.33 1793.33 1361.07 1843.33 1314.27L1854 1304.27L1859.2 1309.07C1862 1311.87 1874.53 1324.8 1887.2 1338ZM990.667 1580.27C1042.27 1617.87 1118.8 1670.27 1170.4 1703.2C1184.67 1712.4 1186.4 1713.87 1184.4 1715.33C1179.33 1718.67 1128 1747.47 1099.73 1762.67C1039.73 1795.07 956.533 1835.87 954.667 1833.73C953.467 1832.4 944.4 1782.13 938 1741.33C929.333 1686.27 920.267 1612.27 915.467 1557.33C914.267 1544.53 913.067 1531.07 912.667 1527.6L911.867 1521.07L938.933 1541.73C953.867 1552.93 977.067 1570.27 990.667 1580.27ZM1585.2 1559.33C1581.07 1604.8 1574.67 1658.8 1568.13 1704L1562 1747.33L1555.33 1747.6C1520.13 1749.33 1486.13 1758.93 1459.87 1774.67L1449.2 1781.2L1428.93 1770.4C1406.53 1758.53 1364.93 1735.6 1341.73 1722.4L1326.8 1713.87L1352.4 1697.33C1413.47 1658 1487.33 1606.53 1551.6 1558.53C1571.2 1544 1587.2 1532.13 1587.47 1532.4C1587.6 1532.53 1586.53 1544.67 1585.2 1559.33ZM1287.2 1774.53C1316.13 1791.47 1367.33 1820 1386.27 1830L1396 1834.93L1392.53 1840.53C1386.4 1850.27 1377.6 1869.73 1373.47 1882.27C1354.67 1939.73 1364.53 2004 1399.73 2054C1414 2074.27 1439.33 2097.6 1459.47 2108.8C1464.13 2111.47 1468.27 2114 1468.67 2114.67C1468.93 2115.2 1465.2 2125.87 1460.13 2138.13C1403.33 2277.73 1335.73 2361.87 1269.73 2375.47C1256 2378.4 1234.93 2377.33 1222 2373.33C1137.47 2346.93 1053.6 2209.87 994.133 2001.33C982.267 1959.87 970.133 1911.33 971.067 1909.07C971.333 1908.13 983.333 1902 997.467 1895.47C1066.13 1863.73 1176.53 1805.07 1243.33 1764.8C1250 1760.8 1255.87 1757.47 1256.53 1757.47C1257.07 1757.33 1270.93 1765.07 1287.2 1774.53ZM1582.67 1777.87C1625.47 1784.4 1664.8 1808.13 1690.93 1843.33C1699.47 1854.67 1713.2 1881.47 1716.53 1893.07C1718.53 1899.87 1718.4 1900.27 1716.27 1899.33C1715.07 1898.8 1706.27 1895.6 1696.67 1892C1656.13 1877.07 1601.07 1854.13 1555.07 1832.93C1524.4 1818.8 1480 1796.93 1480 1796C1480 1795.47 1484.8 1792.8 1490.53 1790.27C1517.6 1777.87 1551.87 1773.33 1582.67 1777.87ZM1533.33 1902.67C1588.67 1927.87 1642.4 1949.6 1694 1968.13C1723.07 1978.53 1721.07 1976 1715.2 1994C1710.8 2007.2 1703.07 2022.93 1694.27 2036C1685.6 2049.07 1664.8 2069.73 1651.47 2078.67C1594.27 2116.93 1522.27 2117.33 1465.6 2079.6C1421.73 2050.4 1394.8 2002.67 1392.4 1950C1390.93 1916 1397.73 1887.73 1414.67 1858.13L1420.27 1848.4L1461.87 1868.67C1484.67 1879.87 1516.8 1895.2 1533.33 1902.67Z" fill="white"/>
<path d="M1234.4 1009.47C1126.53 1017.73 1034.13 1098.93 1012.13 1204.8C1000.93 1258.8 1007.33 1312.67 1030.53 1362C1043.6 1389.47 1059.07 1410.93 1082.13 1433.47C1110.8 1461.2 1138.67 1478.27 1175.73 1490.67C1248.8 1515.07 1327.6 1504.67 1391.33 1462C1443.2 1427.33 1478.8 1376.93 1494 1316.67C1499.6 1294.53 1501.33 1280.27 1501.33 1255.47C1501.33 1205.33 1487.47 1160.13 1459.33 1118C1423.2 1064.13 1365.33 1025.6 1302.4 1013.47C1290 1011.07 1256.4 1007.6 1250.67 1008.13C1249.6 1008.27 1242.27 1008.93 1234.4 1009.47ZM1300 1047.6C1320.8 1051.87 1344.4 1061.2 1363.6 1072.8C1458.67 1130.27 1494.4 1249.07 1446.67 1348.8C1425.6 1392.53 1389.87 1428 1345.07 1449.33C1318.13 1462.13 1294.8 1467.87 1264.53 1468.93L1244.27 1469.73L1240.53 1463.2C1235.2 1454.13 1234.4 1441.33 1238.67 1432.67C1242.27 1425.33 1250.4 1416.67 1260 1410.27C1267.73 1405.07 1274.53 1402.4 1287.07 1400C1297.33 1398 1299.07 1394.67 1299.2 1377.33C1299.2 1366.27 1298.8 1363.6 1295.6 1356.93C1290.93 1346.8 1279.6 1335.6 1259.47 1321.47C1234.13 1303.47 1225.73 1293.2 1224.27 1278.53C1223.47 1269.6 1226.27 1262.53 1237.07 1246.53C1248.53 1229.6 1251.2 1222.27 1250.4 1208.8C1249.87 1197.47 1247.07 1192.13 1240.53 1190.4C1238.4 1189.87 1228.93 1190 1219.6 1190.67C1210.13 1191.47 1200.4 1191.73 1198 1191.2C1183.33 1188.53 1184.27 1171.07 1200.53 1146C1212.93 1126.93 1229.47 1110.4 1250.8 1095.33C1268.67 1082.8 1278.93 1067.87 1280.8 1051.87L1281.6 1044.13L1285.87 1044.8C1288.13 1045.2 1294.53 1046.4 1300 1047.6Z" fill="white"/>
</svg>
