<svg width="2rem" height="2rem" viewBox="0 0 85 84" fill="none" xmlns="http://www.w3.org/2000/svg">
<path d="M70.3498 0H14.47C6.78649 0 0.5 6.28649 0.5 13.97V69.85C0.5 77.5335 6.78649 83.82 14.47 83.82H70.35C78.0335 83.82 84.32 77.5335 84.32 69.85V13.97C84.3198 6.28649 78.0333 0 70.3498 0ZM40.6595 42.652C37.7503 45.5612 33.1779 46.9275 28.0123 46.9275C26.6465 46.9275 25.3997 46.8676 24.4495 46.6895V61.7713H17.2061V22.2857C19.8186 21.8109 23.4407 21.4543 28.3684 21.4543C33.7128 21.4543 37.6317 22.5825 40.185 24.7203C42.5602 26.68 44.1037 29.8267 44.1037 33.5675C44.1035 37.3677 42.9161 40.5143 40.6595 42.652ZM55.8573 62.3656C52.354 62.3656 49.2072 61.5341 47.0695 60.3463L48.4945 55.0619C50.1569 56.0714 53.3042 57.1404 55.9167 57.1404C59.1227 57.1404 60.5483 55.834 60.5483 53.9337C60.5483 51.9747 59.3609 50.9649 55.798 49.7181C50.1568 47.7584 47.7824 44.6711 47.8416 41.2864C47.8416 36.18 52.0572 32.2019 58.7668 32.2019C61.9734 32.2019 64.7641 33.0334 66.4262 33.9236L65.0012 39.0894C63.7543 38.3772 61.4383 37.4269 58.8854 37.4269C56.2727 37.4269 54.8477 38.6739 54.8477 40.455C54.8477 42.296 56.2135 43.1869 59.895 44.4931C65.12 46.3929 67.5546 49.0648 67.6139 53.3404C67.6138 58.5655 63.5171 62.3656 55.8573 62.3656ZM36.8001 33.8642C36.8001 38.5552 33.4747 41.2271 28.0123 41.2271C26.5279 41.2271 25.3404 41.1677 24.4495 40.9303V27.3922C25.2218 27.2142 26.6467 27.0361 28.6658 27.0361C33.7128 27.0361 36.8001 29.4112 36.8001 33.8642Z" fill="white"/>
</svg>
