<svg width="2rem" height="2rem" viewBox="0 0 85 82" fill="none" xmlns="http://www.w3.org/2000/svg">
<path d="M63.2008 35.8296C63.5497 35.8649 63.8654 35.9239 64.1716 36.0069L64.1298 35.9973V51.347C63.7678 51.4591 63.3464 51.5386 62.9117 51.5694L62.8936 51.5705C62.4068 51.6096 61.919 51.6283 61.4302 51.6264H61.3874C60.3666 51.6264 59.3844 51.4615 58.466 51.157L58.5315 51.176C57.609 50.8802 56.8181 50.3981 56.1687 49.7703L56.1705 49.7719C55.4927 49.0892 54.9566 48.2645 54.6109 47.3467L54.5952 47.2992C54.2197 46.2963 54.0022 45.1373 54.0022 43.9276C54.0022 43.847 54.0032 43.7666 54.0052 43.6865L54.0049 43.6983C53.9939 43.5496 53.9878 43.3762 53.9878 43.2014C53.9878 40.3367 55.6516 37.8607 58.0656 36.6868L58.1084 36.6679C59.232 36.0993 60.5578 35.7666 61.9613 35.7666C61.9905 35.7666 62.0198 35.7666 62.049 35.7669H62.0446C62.4321 35.7739 62.8163 35.7914 63.2005 35.8298L63.2008 35.8296ZM71.782 56.1282C70.1588 56.8272 68.2551 57.4112 66.2778 57.7874L66.1031 57.8151C64.4818 58.131 62.6145 58.315 60.7055 58.3215H60.7001C60.6236 58.3227 60.5335 58.3234 60.4433 58.3234C57.8153 58.3234 55.3229 57.7435 53.0868 56.7051L53.1947 56.7499C50.9757 55.7061 49.1796 54.0729 47.965 52.0506L47.9349 51.9964C46.7244 49.8654 46.0109 47.3151 46.0109 44.598C46.0109 44.402 46.0145 44.2067 46.0219 44.0126L46.021 44.0405C46.0207 44.0056 46.0206 43.9639 46.0206 43.9224C46.0206 41.2572 46.731 38.7581 47.9726 36.6039L47.935 36.675C49.2685 34.3818 51.1613 32.5449 53.4314 31.3157L53.5056 31.279C55.917 29.9931 58.7795 29.238 61.8184 29.238C62.2569 29.238 62.6918 29.2537 63.1224 29.2845L63.0645 29.2812C63.3649 29.2987 63.7212 29.3266 64.1332 29.365V18.2867C64.1332 18.0247 64.245 17.8921 64.4721 17.8921H71.5548C71.5672 17.8904 71.5816 17.8893 71.5962 17.8893C71.747 17.8893 71.8719 18.0005 71.8931 18.1454L71.8934 18.1472C71.8951 18.1597 71.896 18.1742 71.896 18.1891C71.896 18.2039 71.8951 18.2184 71.8932 18.2326L71.8934 18.2308V51.4691C71.8934 52.1084 71.9213 52.7997 71.9772 53.5507C72.0331 54.2979 72.082 54.972 72.117 55.5727C72.1177 55.5834 72.1181 55.5959 72.1181 55.6085C72.1181 55.8386 71.9816 56.0367 71.7852 56.1266L71.7817 56.1281L71.782 56.1282ZM44.9559 57.595H36.9684C36.4094 57.595 36.0114 57.5741 35.7879 57.2004C35.037 55.7371 34.2872 54.2842 33.5386 52.8417C32.7659 51.3577 31.9696 49.8862 31.1498 48.4273C30.2982 46.9174 29.4635 45.3981 28.6456 43.8696H28.5897C27.8328 45.3797 27.0551 46.8792 26.2568 48.368C25.4535 49.8663 24.6572 51.3564 23.8679 52.8384C23.0828 54.3205 22.2783 55.792 21.4546 57.253C21.3008 57.5919 21.0388 57.6266 20.6617 57.6266H12.9609C12.8107 57.6266 12.7269 57.686 12.7094 57.5358C12.7055 57.5105 12.7033 57.4813 12.7033 57.4515C12.7033 57.3362 12.7367 57.2291 12.7947 57.1389L12.7933 57.1411L23.6445 39.312L13.0727 21.4372C12.9575 21.287 12.94 21.1647 13.0168 21.0634C13.0909 20.9769 13.2003 20.9223 13.3225 20.9223C13.3342 20.9223 13.3458 20.9228 13.3572 20.9237H13.3557H21.2837C21.2995 20.9229 21.3176 20.9226 21.3361 20.9226C21.4995 20.9226 21.6555 20.9538 21.7987 21.0105L21.7902 21.0074C21.9256 21.0862 22.0378 21.1906 22.1232 21.3148L22.1255 21.3183C22.7995 22.82 23.5492 24.3194 24.3746 25.8166C25.1988 27.3147 26.0324 28.7955 26.8753 30.2589C27.717 31.7223 28.4946 33.2032 29.2083 34.7015H29.2642C30.008 33.1647 30.7671 31.6652 31.5413 30.2031C32.3166 28.7398 33.1035 27.2682 33.9021 25.7885C34.7089 24.3041 35.4866 22.8326 36.2351 21.374C36.2793 21.2281 36.3565 21.1035 36.4585 21.0039L36.4588 21.0037C36.5673 20.9485 36.6955 20.9162 36.831 20.9162C36.8586 20.9162 36.8859 20.9175 36.9128 20.9202L36.9095 20.9199H44.2748C44.2982 20.9138 44.3249 20.9105 44.3526 20.9105C44.5307 20.9105 44.6752 21.0549 44.6752 21.2332C44.6752 21.3332 44.6298 21.4227 44.5582 21.4818L44.5577 21.4822L44.5612 21.4961L34.1011 38.7597L45.2911 57.092C45.3374 57.1729 45.3646 57.27 45.3646 57.3732C45.3646 57.4235 45.3582 57.4721 45.3461 57.5185L45.347 57.5145C45.3121 57.6403 45.1828 57.5564 44.9557 57.5949L44.9559 57.595ZM66.2812 0H18.5388C8.57614 0 0.5 8.07614 0.5 18.0388V63.686C0.5 73.6486 8.57614 81.7248 18.5388 81.7248H66.2812C76.2439 81.7248 84.32 73.6486 84.32 63.686V18.0388C84.32 8.07614 76.2439 0 66.2812 0Z" fill="white"/>
</svg>
