<svg width="2rem" height="2rem" viewBox="0 0 84 63" fill="none" xmlns="http://www.w3.org/2000/svg">
<rect width="84" height="63" fill="#1E1E1E"/>
<path d="M83.82 30.0223V32.8328C83.7938 32.9821 83.765 33.1341 83.7388 33.2834C83.6026 34.5118 83.5057 35.7403 83.3171 36.9399C82.6754 40.8426 81.2714 44.5647 79.21 47.9226C76.169 52.97 71.7477 57.0482 66.4672 59.6675C63.3974 61.2103 60.0682 62.2056 56.6579 62.6011C55.8931 62.6954 55.1309 62.7792 54.3791 62.8604H24.9252C24.7759 62.8342 24.6397 62.7923 24.4878 62.7792C21.528 62.6011 18.6363 61.8913 15.9332 60.6916C9.99784 58.0462 5.57909 53.7741 2.68739 47.8964C1.41966 45.2902 0.586722 42.4928 0.246214 39.6168L0 37.5161V34.7868C0.0261929 34.6375 0.0681016 34.4856 0.0811981 34.3363C0.230498 31.7301 0.762214 29.1789 1.69206 26.7377C4.18825 20.1764 8.55461 15.3045 14.7466 12.1404C17.9264 10.5296 21.4049 9.61543 24.9645 9.45303C26.7246 9.37183 28.4848 9.45303 30.2162 9.69924C30.3943 9.72544 30.5855 9.65733 30.7217 9.53423C33.1917 6.95684 36.0965 4.81426 39.3025 3.21911C42.3854 1.66325 45.7276 0.66792 49.1668 0.25931C49.9866 0.165015 50.8038 0.0811981 51.6079 0H54.1172C54.2822 0.0261929 54.4577 0.0550052 54.6096 0.0681017C55.8643 0.217401 57.1058 0.314315 58.3474 0.531717C62.1532 1.18654 65.8097 2.59048 69.0708 4.66496C74.0919 7.80287 78.1152 12.2897 80.6664 17.6383C82.1934 20.7762 83.1757 24.1604 83.5712 27.6257C83.6524 28.4298 83.7362 29.2366 83.8174 30.0276L83.82 30.0223ZM36.9451 11.8628C37.0001 11.9309 37.0132 11.9728 37.0394 11.9728C38.7577 12.845 40.4078 13.8561 41.9637 15.0007C42.058 15.0688 42.3042 15.0426 42.4273 14.9745C46.6837 12.219 51.3224 11.2787 56.2886 12.164C61.1579 13.0519 65.1287 15.5193 68.1566 19.4771C71.58 23.9508 72.8897 29.0139 71.9494 34.6323C71.3076 38.3988 69.8199 41.7934 67.2975 44.6197C62.6875 49.7901 56.9146 51.9327 50.1228 51.0317C45.9476 50.4712 42.333 48.6298 39.3444 45.56C35.5098 41.631 31.6489 37.7152 27.8038 33.7863C27.2852 33.2545 26.7273 32.8459 25.9886 32.749C24.7209 32.5709 23.4924 33.2545 22.9607 34.428C22.4683 35.4652 22.539 36.6518 23.6155 37.7283C27.8981 42.0108 32.1413 46.3353 36.4265 50.6205C37.1625 51.3565 37.9536 52.0401 38.7865 52.653C41.9113 54.958 45.4447 56.2415 49.2637 56.7601C52.2654 57.1556 55.2383 57.0744 58.185 56.3908C63.8191 55.1073 68.484 52.1894 72.1537 47.6738C75.1554 44.0041 77.0648 39.5697 77.6516 34.8628C78.034 32.1204 77.9528 29.3387 77.4342 26.6094C76.575 22.1749 74.7337 18.2067 71.7739 14.8226C66.1267 8.36864 59.0179 5.49004 50.5602 6.13177C47.328 6.40417 44.1901 7.34712 41.3377 8.90036C39.7687 9.7202 38.3098 10.7155 36.9582 11.8602L36.9451 11.8628ZM34.8864 56.8832C34.7633 56.7732 34.6532 56.6658 34.5328 56.5558C32.7857 54.8768 31.0255 53.2005 29.2942 51.4953C29.0087 51.181 28.5974 51.0029 28.1757 51.0186C26.4156 51.0605 24.6685 51.0736 22.9372 50.6781C14.3432 48.7005 9.34826 39.1925 12.515 30.8291C15.0112 24.2389 21.9287 20.2288 28.7494 21.4573C31.8061 22.0178 34.4935 23.3405 36.7015 25.6455C39.3889 28.4691 42.1444 31.1984 44.8737 33.9958C45.4866 34.6244 46.1965 34.923 47.0556 34.7999C48.1478 34.6349 49.0332 34.1032 49.4287 32.9979C49.8242 31.9056 49.633 30.8841 48.8289 30.0512C45.9765 27.1175 43.1948 24.1027 40.235 21.2922C34.4778 15.8362 27.699 14.2123 20.1948 16.5304C10.1131 19.6552 4.20658 30.2397 6.51156 40.6907C8.61224 50.2276 16.8106 56.8989 26.3894 56.912H34.4254C34.5485 56.912 34.6847 56.8989 34.889 56.8858L34.8864 56.8832Z" fill="white"/>
</svg>
