<svg width="1.5rem" height="1.5rem" viewBox="0 0 85 82" fill="none" xmlns="http://www.w3.org/2000/svg">
<path d="M62.9841 25.6697C62.2365 26.429 61.1972 26.8994 60.0482 26.8994C59.9618 26.8994 59.8759 26.8968 59.7907 26.8915L59.8025 26.8921C59.7748 26.8927 59.7422 26.8929 59.7093 26.8929C58.5354 26.8929 57.4704 26.4266 56.6897 25.6687L56.6908 25.6697C55.953 24.8655 55.5008 23.7889 55.5008 22.6068C55.5008 22.5539 55.5017 22.5013 55.5035 22.449V22.4567C55.5017 22.413 55.5008 22.3615 55.5008 22.3099C55.5008 21.1479 55.9821 20.0983 56.756 19.3495L56.7572 19.3486C57.5609 18.5914 58.6468 18.126 59.8414 18.126H59.8742H59.8724C59.9376 18.1225 60.0137 18.1205 60.0903 18.1205C61.2467 18.1205 62.2936 18.5898 63.0506 19.3484C63.7666 20.1297 64.2052 21.1752 64.2052 22.3231C64.2052 22.3701 64.2045 22.4169 64.203 22.4636L64.2032 22.4567C64.2049 22.5039 64.2058 22.5591 64.2058 22.6146C64.2058 23.7997 63.7406 24.8764 62.9826 25.6716L62.9843 25.6699L62.9841 25.6697ZM63.7141 57.2068C63.7141 57.5911 63.5779 57.7658 63.2636 57.7658H56.4149C56.4033 57.7666 56.3898 57.7673 56.3761 57.7673C56.1054 57.7673 55.886 57.5478 55.886 57.2771C55.886 57.2522 55.8877 57.2278 55.8914 57.204L55.8911 57.2066V30.3146C55.8911 29.9653 56.0343 29.8255 56.3487 29.8255H63.2637C63.5781 29.8255 63.7142 30.0002 63.7142 30.3146L63.7141 57.2068ZM51.8396 57.7308H44.5369C44.5224 57.7322 44.5054 57.7331 44.4885 57.7331C44.2476 57.7331 44.0446 57.5713 43.9824 57.3504L43.9815 57.3467L41.1177 49.0347H28.1256L25.4714 57.242C25.4126 57.5264 25.1642 57.7372 24.8665 57.7372C24.8459 57.7372 24.8255 57.7361 24.8052 57.7342L24.8079 57.7344H18.2418C17.8577 57.7344 17.753 57.5213 17.8577 57.1058L29.1035 24.7271C29.2083 24.3777 29.3131 23.9937 29.4529 23.5746C29.5861 22.8977 29.6623 22.1193 29.6623 21.3232V21.3033V21.3043C29.6606 21.2912 29.6597 21.2759 29.6597 21.2603C29.6597 21.0917 29.7802 20.9513 29.9397 20.9206L29.9419 20.9201H38.9874C39.2669 20.9201 39.4066 21.0249 39.4415 21.1996L52.1887 57.1724C52.2936 57.5528 52.1887 57.731 51.8394 57.731L51.8396 57.7308ZM69.4766 8.72892e-05H15.3307C7.13998 8.72892e-05 0.5 6.63998 0.5 14.8308V14.8439V14.8432V66.8936C0.5 75.0844 7.13998 81.7243 15.3307 81.7243H69.4893C77.68 81.7243 84.32 75.0844 84.32 66.8936V66.8805V66.8811V14.8432V14.8307C84.32 6.63998 77.68 0 69.4893 0H69.4762H69.4768L69.4766 8.72892e-05ZM37.276 36.4267C36.9267 35.344 36.6125 34.2963 36.2632 33.2135C35.9138 32.1307 35.5997 31.1181 35.3202 30.1052C35.0407 29.1274 34.7963 28.2193 34.5519 27.3812H34.482C34.1053 29.203 33.6955 30.7139 33.2078 32.1894L33.2946 31.8864C32.7706 33.5627 32.2468 35.3089 31.688 37.0552C31.1989 38.8365 30.6752 40.478 30.1513 41.9448H39.022C38.8124 41.2079 38.5331 40.3383 38.2187 39.4269C37.9048 38.4874 37.5904 37.4745 37.2761 36.4268L37.276 36.4267Z" fill="white"/>
</svg>
